<svg xmlns="http://www.w3.org/2000/svg"
   version="1.1"
   id="svg2"
   xml:space="preserve"
   width="100%"
   height="100%"
   viewBox="0 0 1066.6667 1066.6667">
  <g class="fill"
     id="g144"
     transform="matrix(5.7667584,0,0,-5.7667584,414.25064,9.6052503)"><path
       d="m 0,0 c -4.031,-4.106 -18.54,-11.921 -29.463,-15.631 -4.289,-2.438 -7.471,-5.35 -11.06,-8.734 -7.079,-6.675 -21.435,-56.626 -21.926,-59.327 -0.615,-3.384 3.174,-6.384 5.762,-8.122 11.92,-7.527 24.472,-7.215 26.447,-6.421 0.98,2.77 2.448,6.8 2.957,9.263 l 0.267,-5.068 c -0.267,-18.279 -3.971,-76.56 -3.971,-76.56 0.568,-2.545 2.431,-3.122 4.782,-4.165 1.984,-0.88 23.162,-7.489 40.537,-7.225 39.58,0.928 47.485,5.431 51.312,7.089 4.355,1.888 8.481,3.401 7.753,8.802 -0.364,2.716 -5.974,33.118 -3.724,60.404 0,4.243 -0.112,8.343 -0.524,12.451 -0.298,2.98 -1.379,9.348 0.193,11.906 1.335,-4.283 4.835,-15.086 4.835,-15.086 0,0 18.012,-2.915 31.258,10.331 0,0 -7.947,42.119 -16.69,56.159 C 79.476,-10.595 45.037,-6.622 39.669,-0.04 37.206,-2.099 17.354,-9.138 0,-0.264"
       style="fill:none;stroke:#000000;stroke-width:0.5;stroke-linecap:butt;stroke-linejoin:miter;stroke-miterlimit:10;stroke-dasharray:none;stroke-opacity:1"
       id="path146"
       inkscape:connector-curvature="0" /></g><g
     id="g164"
     transform="matrix(5.7667584,0,0,-5.7667584,408.15403,35.572392)"><path
       d="M 0,0 C 0,0 19.604,-10.729 41.26,0"
       style="fill:none;stroke:#000000;stroke-width:0.5;stroke-linecap:butt;stroke-linejoin:miter;stroke-miterlimit:10;stroke-dasharray:none;stroke-opacity:1"
       id="path166"
       inkscape:connector-curvature="0" /></g><g
     id="g168"
     transform="matrix(5.7667584,0,0,-5.7667584,387.15956,32.134248)"><path
       d="m 0,0 c 0,0 -0.795,-13.312 23.245,-15.298 0,0 20.662,-0.597 27.418,15.298"
       style="fill:none;stroke:#000000;stroke-width:0.5;stroke-linecap:butt;stroke-linejoin:miter;stroke-miterlimit:10;stroke-dasharray:none;stroke-opacity:1"
       id="path170"
       inkscape:connector-curvature="0" /></g><g
     id="g172"
     transform="matrix(5.7667584,0,0,-5.7667584,402.05222,19.533881)"><path
       d="m 0,0 c 0,0 0.794,-12.317 21.656,-12.715 0,0 14.901,-0.596 22.649,12.516"
       style="fill:none;stroke:#000000;stroke-width:0.5;stroke-linecap:butt;stroke-linejoin:miter;stroke-miterlimit:10;stroke-dasharray:none;stroke-opacity:1"
       id="path174"
       inkscape:connector-curvature="0" /></g><g
     id="g184"
     transform="matrix(5.7667584,0,0,-5.7667584,814.13038,478.66416)"><path
       d="M 0,0 C 0,0 -7.669,54.432 7.665,63.888"
       style="fill:none;stroke:#000000;stroke-width:0.5;stroke-linecap:butt;stroke-linejoin:miter;stroke-miterlimit:10;stroke-dasharray:none;stroke-opacity:1"
       id="path186"
       inkscape:connector-curvature="0" /></g><g
     id="g188"
     transform="matrix(5.7667584,0,0,-5.7667584,256.85274,520.47028)"><path
       d="M 0,0 C 0,0 8.871,58.123 -8.866,68.221"
       style="fill:none;stroke:#000000;stroke-width:0.5;stroke-linecap:round;stroke-linejoin:round;stroke-miterlimit:10;stroke-dasharray:none;stroke-opacity:1"
       id="path190"
       inkscape:connector-curvature="0" /></g></svg>