<svg xmlns="http://www.w3.org/2000/svg"
   version="1.1"
   id="svg2"
   xml:space="preserve"
   width="100%"
   height="100%"
   viewBox="0 0 1066.6667 1066.6667">
   <g
     id="g408"
     class="fill"
     transform="matrix(5.56875,0,0,-5.56875,400.27715,8.0066876)"><path
       d="m 0,0 c 0,0 18.957,-32.729 45.695,-0.135 0,0 25.464,0 46.599,-28.266 l 16.044,-23.936 -27.247,-23.682 -9.422,8.912 c 0,0 -5.093,-35.141 -1.02,-51.947 4.075,-16.807 6.875,-55.258 6.368,-62.898 0,0 -25.844,-7.5 -55.522,-7.902 -17.074,-0.232 -36.183,4.089 -50.412,7.902 0,0 0,50.166 6.621,63.152 0,0 5.603,28.266 -3.31,49.402 l -7.639,-9.168 c 0,0 -10.436,8.175 -14.8,12.648 -4.366,4.472 -13.211,11.289 -13.211,11.289 l 23.78,31.801 c 0,0 5.9,11.114 37.476,22.828 z"
       style="fill:none;stroke:#000000;stroke-width:0.5;stroke-linecap:round;stroke-linejoin:round;stroke-miterlimit:10;stroke-dasharray:none;stroke-opacity:1"
       id="path410"
       inkscape:connector-curvature="0" /></g><g
     id="g412"
     transform="matrix(5.56875,0,0,-5.56875,400.27715,8.0066876)"><path
       d="M 0,0 C 0,0 18.149,-11.684 45.695,-0.135"
       style="fill:none;stroke:#000000;stroke-width:0.5;stroke-linecap:round;stroke-linejoin:round;stroke-miterlimit:10;stroke-dasharray:none;stroke-opacity:1"
       id="path414"
       inkscape:connector-curvature="0" /></g><g
     id="g416"
     transform="matrix(5.56875,0,0,-5.56875,385.447,13.303683)"><path
       d="M 0,0 C 0,0 21.876,-37.096 51.363,0.57"
       style="fill:none;stroke:#000000;stroke-width:0.5;stroke-linecap:round;stroke-linejoin:round;stroke-miterlimit:10;stroke-dasharray:none;stroke-opacity:1"
       id="path418"
       inkscape:connector-curvature="0" /></g><g
     id="g420"
     transform="matrix(5.56875,0,0,-5.56875,417.22786,32.375538)"><path
       d="M 0,0 C 0,0 14.267,-8.94 38.808,0"
       style="fill:none;stroke:#000000;stroke-width:0.5;stroke-linecap:round;stroke-linejoin:round;stroke-miterlimit:10;stroke-dasharray:none;stroke-opacity:1"
       id="path422"
       inkscape:connector-curvature="0" /></g><g
     id="g424"
     transform="matrix(5.56875,0,0,-5.56875,191.58491,135.13122)"><path
       d="M 0,0 C 0,0 12.014,-32.613 11.869,-46.57"
       style="fill:none;stroke:#000000;stroke-width:0.5;stroke-linecap:round;stroke-linejoin:round;stroke-miterlimit:10;stroke-dasharray:none;stroke-opacity:1"
       id="path426"
       inkscape:connector-curvature="0" /></g><g
     id="g428"
     transform="matrix(5.56875,0,0,-5.56875,876.54116,123.99372)"><path
       d="M 0,0 C 0,0 -14.3,-32.613 -14.128,-46.57"
       style="fill:none;stroke:#000000;stroke-width:0.5;stroke-linecap:round;stroke-linejoin:round;stroke-miterlimit:10;stroke-dasharray:none;stroke-opacity:1"
       id="path430"
       inkscape:connector-curvature="0" /></g></svg>